# AST/ASF file generated using VICON BodyLanguage
# -----------------------------------------------
:version 1.10
:name VICON
:units
  mass 1.0
  length 0.45
  angle deg
:documentation
   .ast/.asf automatically generated from VICON data using
   VICON BodyBuilder and BodyLanguage model FoxedUp or BRILLIANT.MOD
:root
   order TX TY TZ RX RY RZ
   axis XYZ
   position 0 0 0  
   orientation 0 0 0 
:bonedata
  begin
     id 1 
     name lhipjoint
     direction 0.603808 -0.713975 0.35448 
     length 2.2025 
     axis 0 0 0  XYZ
  end
  begin
     id 2 
     name lfemur
     direction 0.34202 -0.939693 0  
     length 6.55877  
     axis 0 0 20  XYZ
    dof rx ry rz
    limits (-160.0 20.0)
           (-70.0 70.0)
           (-60.0 70.0)
  end
  begin
     id 3 
     name ltibia
     direction 0.34202 -0.939693 0   
     length 6.80302   
     axis 0 0 20   XYZ
    dof rx
    limits (-10.0 170.0)
  end
  begin
     id 4 
     name lfoot
     direction 0.091848 -0.25235 0.963267   
     length 2.03446   
     axis -90 7.62852e-016 20   XYZ
    dof rx rz
    limits (-45.0 90.0)
           (-70.0 20.0)
  end
  begin
     id 5 
     name ltoes
     direction 1.53608e-011 -4.21925e-011 1   
     length 1.02033   
     axis -90 7.62852e-016 20   XYZ
    dof rx
    limits (-90.0 20.0)
  end
  begin
     id 6 
     name rhipjoint
     direction -0.587285 -0.724947 0.359928   
     length 2.16916  
     axis 0 0 0  XYZ 
  end
  begin
     id 7 
     name rfemur
     direction -0.34202 -0.939693 0   
     length 6.43173   
     axis 0 0 -20   XYZ
    dof rx ry rz
    limits (-160.0 20.0)
           (-70.0 70.0)
           (-70.0 60.0)
  end
  begin
     id 8 
     name rtibia
     direction -0.34202 -0.939693 0   
     length 6.70662   
     axis 0 0 -20   XYZ
    dof rx
    limits (-10.0 170.0)
 end
 begin
     id 9 
     name rfoot
     direction -0.11854 -0.325686 0.938018   
     length 2.0773  
     axis -90 -7.62852e-016 -20   XYZ
    dof rx rz
    limits (-45.0 90.0)
           (-20.0 70.0)
  end
  begin
     id 10 
     name rtoes
     direction -1.53547e-011 -4.21838e-011 1   
     length 1.03267   
     axis -90 -7.62852e-016 -20   XYZ
    dof rx
    limits (-90.0 20.0)
  end
  begin
     id 11 
     name lowerback
     direction -0.0286554 0.999539 0.0100613   
     length 2.08751   
     axis 0 0 0   XYZ
    dof rx ry rz
    limits (-20.0 45.0)
           (-30.0 30.0)
           (-30.0 30.0)
  end
  begin
     id 12 
     name upperback
     direction 0.0227093 0.999705 -0.00860929   
     length 2.08517   
     axis 0 0 0   XYZ
    dof rx ry rz
    limits (-20.0 45.0)
           (-30.0 30.0)
           (-30.0 30.0)
  end
  begin
     id 13 
     name thorax
     direction 0.0351627 0.999285 -0.013892   
     length 2.08412   
     axis 0 0 0   XYZ
    dof rx ry rz
    limits (-20.0 45.0)
           (-30.0 30.0)
           (-30.0 30.0)
  end
  begin
     id 14 
     name lowerneck
     direction -0.0696283 0.997344 0.0213922   
     length 1.44164   
     axis 0 0 0   XYZ
    dof rx ry rz
    limits (-20.0 45.0)
           (-30.0 30.0)
           (-30.0 30.0)
  end
  begin
     id 15 
     name upperneck
     direction 0.0531 0.990412 -0.127531   
     length 1.45022   
     axis 0 0 0   XYZ
    dof rx ry rz
    limits (-20.0 45.0)
           (-30.0 30.0)
           (-30.0 30.0)
  end
  begin
     id 16
     name head
     direction 0.0188154 0.998548 -0.0504727  
     length 1.45845  
     axis 0 0 0   XYZ
    dof rx ry rz
    limits (-20.0 45.0)
           (-30.0 30.0)
           (-30.0 30.0)
  end
  begin
     id 17 
     name lclavicle
     direction 0.961559 0.260051 0.088188  
     length 2.86057  
     axis 0 0 0   XYZ
    dof ry rz
    limits (-20.0 10.0)
           (0.0 20.0)
  end
  begin
     id 18 
     name lhumerus
     direction 1 -4.48959e-011 2.88185e-027   
     length 4.36901   
     axis 180 -30 -90   XYZ
    dof rx ry rz
    limits (-60.0 90.0)
           (-90.0 90.0)
           (-90.0 90.0)
  end
  begin
     id 19
     name lradius
     direction 1 -4.48965e-011 -3.92618e-028   
     length 3.21737   
     axis 180 -30 -90   XYZ
    dof rx
    limits (-10.0 170.0)
  end
  begin
     id 20
     name lwrist
     direction 1 -4.49037e-011 2.57246e-027   
     length 1.60869   
     axis -1.61769e-015 90 90   XYZ
    dof ry
    limits (-180.0 0.0)
 end
  begin
     id 21 
     name lhand
     direction 1 -4.48807e-011 5.12958e-027   
     length 0.564313   
     axis -3.27988e-015 90 90   XYZ
    dof rx rz
    limits (-90.0 90.0)
           (-45.0 45.0)
  end
  begin
     id 22 
     name lfingers
     direction 1 -4.48879e-011 1.02687e-026   
     length 0.454963   
     axis -6.5598e-015 90 90   XYZ
    dof rx
    limits (0.0 90.0)
  end
  begin
     id 23
     name lthumb
     direction 0.707107 -6.3475e-011 0.707107   
     length 0.653239   
     axis -90 45 2.19363e-014   XYZ
    dof rx rz
    limits (-45.0 45.0)
           (-45.0 45.0)
  end
  begin
     id 24 
     name rclavicle
     direction -0.954677 0.253915 0.155304   
     length 3.11497  
     axis 0 0 0   XYZ 
    dof ry rz
    limits (-10.0 20.0)
           (-20.0 0.0)
  end
  begin
     id 25 
     name rhumerus
     direction -1 -4.48958e-011 -8.20169e-028  
     length 4.34118   
     axis 180 30 90   XYZ
    dof rx ry rz
    limits (-90.0 60.0)
           (-90.0 90.0)
           (-90.0 90.0)
  end
  begin
     id 26 
     name rradius
     direction -1 -4.48978e-011 1.5676e-027   
     length 3.09531   
     axis 180 30 90   XYZ
    dof rx
    limits (-10.0 170.0)
  end
  begin
     id 27 
     name rwrist
     direction -1 -4.49001e-011 2.57123e-027   
     length 1.54765   
     axis -1.61769e-015 -90 -90   XYZ
    dof ry
    limits (-180.0 0.0)
  end
  begin
     id 28
     name rhand
     direction -1 -4.48847e-011 5.13225e-027   
     length 0.597446   
     axis -3.27988e-015 -90 -90   XYZ
    dof rx rz
    limits (-90.0 90.0)
           (-45.0 45.0)
  end
  begin
     id 29
     name rfingers
     direction -1 -4.49094e-011 1.02974e-026   
     length 0.481677   
     axis -6.5598e-015 -90 -90   XYZ
    dof rx
    limits (0.0 90.0)
  end
  begin
     id 30
     name rthumb
     direction -0.707107 -6.34859e-011 0.707107   
     length 0.691594   
     axis -90 -45 -2.19363e-014   XYZ
    dof rx rz
    limits (-45.0 45.0)
           (-45.0 45.0)
  end
:hierarchy
  begin
    root lhipjoint rhipjoint lowerback
    lhipjoint lfemur
    lfemur ltibia
    ltibia lfoot
    lfoot ltoes
    rhipjoint rfemur
    rfemur rtibia
    rtibia rfoot
    rfoot rtoes
    lowerback upperback
    upperback thorax
    thorax lowerneck lclavicle rclavicle
    lowerneck upperneck
    upperneck head
    lclavicle lhumerus
    lhumerus lradius
    lradius lwrist
    lwrist lhand lthumb
    lhand lfingers
    rclavicle rhumerus
    rhumerus rradius
    rradius rwrist
    rwrist rhand rthumb
    rhand rfingers
  end

#!OML:ASF I:\Acrobat_Osman\acrobat\cartwheel_test 2\Patient 1\Session 1\acrobat.ASF
:FULLY-SPECIFIED
:DEGREES
419
root 2.7852 15.8611 -10.4062 187.372 528.393 -178.707
lowerback -2.03614 -3.77557 -6.89544
upperback 1.94707 -4.89456 2.90109
thorax 4.01426 -2.67573 6.60257
lowerneck 4.20367 -18.6403 -14.9913
upperneck -0.157549 -25.7683 14.6243
head 3.08445 -12.9741 5.38472
rclavicle 3.18055e-015 -4.09496e-014
rhumerus -42.7897 14.0887 -84.3821
rradius 86.6536
rwrist -3.02913
rhand -22.9667 40.9645
rfingers 7.12502
rthumb 3.47528 11.0131
lclavicle 3.18055e-015 -4.09496e-014
lhumerus -52.914 -15.8963 91.3225
lradius 113.021
lwrist 20.3484
lhand -13.193 -320.686
lfingers 7.12502
lthumb 12.9071 -1011.1
rfemur -18.5409 9.09497 4.95238
rtibia 22.2899
rfoot -7.42588 -7.96748
rtoes -10.6666
lfemur -11.5185 -0.544158 -20.6249
ltibia 26.1103
lfoot -17.712 28.5075
ltoes -9.20298
420
root 2.85682 15.8689 -10.4342 187.61 528.989 -178.817
lowerback -2.44235 -3.62817 -6.96698
upperback 1.94152 -4.6709 2.94366
thorax 4.21073 -2.5736 6.68197
lowerneck 4.06641 -18.6462 -14.996
upperneck 0.121304 -25.7817 14.552
head 3.18184 -12.9722 5.33571
rclavicle 1.07344e-014 -9.14409e-015
rhumerus -42.8497 14.0365 -84.265
rradius 86.4975
rwrist -3.46818
rhand -23.0002 41.2386
rfingers 7.12502
rthumb 3.44288 11.2866
lclavicle 1.07344e-014 -9.14409e-015
lhumerus -52.9947 -15.6613 91.2236
lradius 112.936
lwrist 19.9842
lhand -13.1204 -320.741
lfingers 7.12502
lthumb 12.9772 -1011.16
rfemur -19.114 8.90177 4.8348
rtibia 22.3299
rfoot -6.7809 -8.25408
rtoes -11.6553
lfemur -11.8164 -0.377839 -20.9254
ltibia 26.1434
lfoot -17.7765 28.9079
ltoes -8.73616
421
root 2.92701 15.8801 -10.4486 187.734 528.912 -178.965
lowerback -2.82773 -3.69926 -6.8964
upperback 1.96772 -4.74764 3.01471
thorax 4.47052 -2.62124 6.68587
lowerneck 3.97628 -18.6331 -15.1132
upperneck 0.338268 -25.7817 14.6142
head 3.28448 -12.9663 5.34265
rclavicle -1.10325e-014 2.8625e-014
rhumerus -42.9123 13.8689 -84.0955
rradius 86.4152
rwrist -3.84403
rhand -22.9891 41.1412
rfingers 7.12502
rthumb 3.45361 11.1895
lclavicle -1.10325e-014 2.8625e-014
lhumerus -53.063 -15.4537 91.1861
lradius 112.887
lwrist 19.8491
lhand -13.1496 -320.548
lfingers 7.12502
lthumb 12.949 -1010.97
rfemur -19.2018 8.6833 4.8588
rtibia 22.2627
rfoot -6.45898 -8.96118
rtoes -11.8497
lfemur -11.9767 -0.70793 -21.0476
ltibia 26.1875
lfoot -18.0139 28.9987
ltoes -7.82226
422
root 2.99513 15.8926 -10.4598 187.62 528.826 -179.078
lowerback -2.88087 -3.78171 -6.8198
upperback 1.99912 -4.8604 3.07236
thorax 4.55173 -2.68034 6.68864
lowerneck 3.96144 -18.5731 -15.196
upperneck 0.446542 -25.716 14.6731
head 3.32883 -12.9322 5.36797
rclavicle 4.64162e-014 2.8625e-014
rhumerus -42.9265 13.7604 -83.8749
rradius 86.2387
rwrist -4.12429
rhand -22.8783 40.7342
rfingers 7.12502
rthumb 3.56066 10.7842
lclavicle 4.64162e-014 2.8625e-014
lhumerus -53.1847 -15.1651 91.1372
lradius 112.875
lwrist 19.7292
lhand -12.9344 -320.547
lfingers 7.12502
lthumb 13.1564 -1010.98
rfemur -18.9908 8.42257 4.92712
rtibia 22.1554
rfoot -6.09593 -9.41703
rtoes -13.7542
lfemur -11.7909 -1.5186 -21.1537
ltibia 26.2716
lfoot -19.4766 28.9373
ltoes -3.56803
423
root 3.05186 15.9035 -10.4796 187.612 529.389 -179.166
lowerback -2.89272 -3.64139 -6.91669
upperback 1.93509 -4.66972 3.1119
thorax 4.47031 -2.58416 6.80543
lowerneck 3.98159 -18.5141 -15.2136
upperneck 0.547983 -25.6512 14.6952
head 3.35255 -12.8999 5.38143
rclavicle -5.86415e-015 -5.96354e-015
rhumerus -43.0472 13.5796 -83.6263
rradius 86.0394
rwrist -4.39126
rhand -22.7555 40.5286
rfingers 7.12502
rthumb 3.67923 10.5806
lclavicle -5.86415e-015 -5.96354e-015
lhumerus -53.386 -14.9182 91.2106
lradius 112.871
lwrist 19.6352
lhand -12.7129 -320.61
lfingers 7.12502
lthumb 13.37 -1011.06
rfemur -19.2041 8.28969 4.92837
rtibia 22.0805
rfoot -5.55905 -9.51862
rtoes -15.5589
lfemur -11.6651 -2.13126 -21.3333
ltibia 26.2727
lfoot -21.5299 28.953
ltoes 2.69066
